<?xml version="1.0" encoding="utf-8"?>
<!-- Generator: Adobe Illustrator 24.0.1, SVG Export Plug-In . SVG Version: 6.00 Build 0)  -->
<svg version="1.1" id="Ebene_1" xmlns="http://www.w3.org/2000/svg" xmlns:xlink="http://www.w3.org/1999/xlink" x="0px" y="0px"
	 viewBox="0 0 948.7 263.7" style="enable-background:new 0 0 948.7 263.7;" xml:space="preserve">
<path d="M859.6,99.6v9.3c-1.9-3-4.6-5.6-8.3-7.7c-3.7-2.1-8.1-3.2-13.2-3.2c-4.1,0-8,0.8-11.7,2.3c-3.7,1.5-6.9,3.7-9.7,6.6
	c-2.8,2.9-5,6.5-6.7,10.8c-1.6,4.3-2.4,9.2-2.4,14.7c0,5.5,0.8,10.3,2.4,14.6c1.6,4.2,3.8,7.8,6.5,10.7c2.8,2.9,6.1,5,9.9,6.5
	c3.8,1.5,7.9,2.2,12.3,2.2c4.8,0,9-0.9,12.6-2.8c3.6-1.9,6.5-4.3,8.7-7.4v4.2c0,2.4-0.3,4.6-0.9,6.7c-0.6,2.1-1.7,3.9-3.2,5.4
	c-1.5,1.5-3.5,2.8-6,3.6c-2.5,0.9-5.6,1.3-9.3,1.3c-4.1,0-7.7-0.7-10.9-2.1c-3.2-1.4-6.2-3.5-9.1-6.2l-8.6,14.4
	c3.4,3.2,7.5,5.7,12.2,7.5c4.7,1.9,10.4,2.8,17.1,2.8c7,0,12.7-0.9,17.3-2.7c4.6-1.8,8.3-4.2,11-7.2c2.8-3,4.7-6.5,5.9-10.4
	c1.1-3.9,1.7-8,1.7-12.2V99.6H859.6z M855.1,145.6c-3.2,3.2-7.3,4.8-12.4,4.8c-2.5,0-4.8-0.4-6.9-1.3c-2.1-0.8-3.9-2-5.5-3.6
	s-2.8-3.4-3.6-5.6c-0.9-2.2-1.3-4.6-1.3-7.3s0.4-5.1,1.3-7.3c0.9-2.2,2.1-4.1,3.6-5.6s3.4-2.7,5.5-3.6c2.1-0.8,4.4-1.3,6.9-1.3
	c5,0,9.2,1.6,12.4,4.7c3.2,3.1,4.8,7.5,4.8,13C860,138.1,858.4,142.5,855.1,145.6z"/>
<path d="M751.9,109.1L751.9,109.1v-9.5H735v66.1h17.5v-31.6c0-5.9,1.1-10.6,3.4-14.1c2.3-3.5,5.9-5.2,11-5.2c3.7,0,6.6,1.1,8.8,3.4
	c2.2,2.2,3.2,5.9,3.2,10.9v36.6h17.9v-41c0-8.4-2-14.9-5.9-19.6c-3.9-4.7-9.8-7.1-17.5-7.1c-4.8,0-9.1,1-12.6,3.1
	C757.1,103.2,754.2,105.9,751.9,109.1"/>
<rect x="701.2" y="99.6" width="17.5" height="66.1"/>
<path class="st1" fill="#F0856F" d="M695.8,78.5c0,4,1.3,7.4,4,10.1c2.7,2.7,6,4,10.1,4c4,0,7.4-1.3,10.1-4c2.7-2.7,4.1-6,4.1-10.1
	c0-4-1.4-7.4-4.1-10.1c-2.7-2.7-6.1-4.1-10.1-4.1c-4,0-7.4,1.4-10.1,4.1C697.2,71.1,695.8,74.5,695.8,78.5"/>
<path d="M687.7,118.6c-1.8-4.3-4.3-7.9-7.5-11c-3.2-3-6.9-5.4-11.2-7.1c-4.3-1.7-9-2.5-14.2-2.5c-5.1,0-9.8,0.8-14.2,2.5
	c-4.3,1.7-8.1,4-11.2,7.1c-3.2,3-5.7,6.7-7.5,11c-1.8,4.3-2.7,9-2.7,14.1c0,5.2,0.9,9.9,2.7,14.2c1.8,4.2,4.3,7.9,7.5,10.9
	c3.2,3,6.9,5.4,11.2,7.1c4.3,1.7,9,2.5,14.2,2.5c5.1,0,9.8-0.8,14.2-2.5c4.3-1.7,8.1-4,11.2-7.1c3.2-3,5.7-6.7,7.5-10.9
	c1.8-4.2,2.7-9,2.7-14.2C690.4,127.6,689.5,122.9,687.7,118.6z M671.1,139.9c-0.9,2.2-2.1,4-3.7,5.6s-3.5,2.7-5.6,3.6
	c-2.2,0.8-4.5,1.3-6.9,1.3c-2.5,0-4.8-0.4-6.9-1.3c-2.2-0.8-4-2-5.6-3.6s-2.8-3.4-3.7-5.6c-0.9-2.2-1.3-4.6-1.3-7.2s0.4-5,1.3-7.2
	c0.9-2.2,2.1-4,3.7-5.6s3.5-2.7,5.6-3.6c2.2-0.8,4.5-1.3,6.9-1.3c2.5,0,4.8,0.4,6.9,1.3c2.2,0.8,4,2,5.6,3.6s2.8,3.4,3.7,5.6
	c0.9,2.2,1.3,4.6,1.3,7.2S671.9,137.7,671.1,139.9z"/>
<path d="M591.8,73.1v36c-2.3-3.2-5.3-5.8-8.9-8c-3.7-2.2-8.1-3.2-13.3-3.2c-4.1,0-7.9,0.8-11.5,2.3c-3.6,1.5-6.8,3.8-9.5,6.7
	c-2.7,3-4.9,6.6-6.5,10.9c-1.6,4.3-2.4,9.3-2.4,14.8s0.8,10.5,2.4,14.8c1.6,4.3,3.8,8,6.5,10.9c2.8,3,6,5.2,9.6,6.7
	c3.6,1.5,7.5,2.3,11.6,2.3c4.8,0,9.1-1,12.8-3c3.7-2,6.7-4.7,9.1-8v9.3h17.5V73.1H591.8z M587.4,145.6c-3.3,3.2-7.4,4.8-12.4,4.8
	c-2.5,0-4.8-0.4-6.9-1.3c-2.1-0.8-3.9-2-5.5-3.6s-2.8-3.4-3.6-5.6c-0.9-2.2-1.3-4.6-1.3-7.3s0.4-5.1,1.3-7.3
	c0.9-2.2,2.1-4.1,3.6-5.6s3.4-2.7,5.5-3.6c2.1-0.8,4.4-1.3,6.9-1.3c4.9,0,9.1,1.6,12.4,4.7c3.3,3.1,5,7.5,5,13
	C592.4,138.1,590.7,142.5,587.4,145.6z"/>
<path d="M473.4,73.1v36c-2.3-3.2-5.3-5.8-8.9-8c-3.7-2.2-8.1-3.2-13.3-3.2c-4.1,0-7.9,0.8-11.5,2.3c-3.6,1.5-6.8,3.8-9.5,6.7
	c-2.7,3-4.9,6.6-6.5,10.9c-1.6,4.3-2.4,9.3-2.4,14.8s0.8,10.5,2.4,14.8c1.6,4.3,3.8,8,6.5,10.9c2.8,3,6,5.2,9.6,6.7
	c3.6,1.5,7.5,2.3,11.6,2.3c4.9,0,9.1-1,12.8-3c3.7-2,6.7-4.7,9.1-8v9.3h17.5V73.1H473.4z M469,145.6c-3.3,3.2-7.4,4.8-12.4,4.8
	c-2.5,0-4.8-0.4-6.9-1.3c-2.1-0.8-3.9-2-5.5-3.6s-2.8-3.4-3.6-5.6c-0.9-2.2-1.3-4.6-1.3-7.3s0.4-5.1,1.3-7.3
	c0.9-2.2,2.1-4.1,3.6-5.6s3.4-2.7,5.5-3.6c2.1-0.8,4.4-1.3,6.9-1.3c4.9,0,9.1,1.6,12.4,4.7c3.3,3.1,5,7.5,5,13
	C474,138.1,472.3,142.5,469,145.6z"/>
<path d="M411.8,133.2c0-5.3-0.7-10.1-2.2-14.5c-1.5-4.4-3.7-8.1-6.5-11.1c-2.8-3-6.3-5.4-10.3-7.1c-4.1-1.7-8.6-2.5-13.6-2.5
	c-5.2,0-9.9,0.9-14.1,2.6c-4.2,1.8-7.7,4.2-10.6,7.3c-2.9,3.1-5.2,6.8-6.7,11s-2.4,8.8-2.4,13.6c0,4.9,0.8,9.5,2.4,13.8
	c1.6,4.2,3.9,7.9,6.9,11c3,3.1,6.8,5.5,11.2,7.3c4.4,1.8,9.4,2.6,14.9,2.6c6.3,0,11.6-0.9,15.9-2.6c4.2-1.8,7.7-3.8,10.5-6.1
	l-7.3-14.4c-2.3,2-5,3.7-8.1,4.9c-3.1,1.2-6.7,1.9-10.7,1.9c-1.9,0-3.9-0.2-5.8-0.7c-1.9-0.5-3.6-1.3-5.2-2.3c-1.6-1.1-3-2.4-4.2-4
	c-1.2-1.6-2.1-3.5-2.6-5.7l-0.1-0.3h48.7V133.2z M363,125.3c0.9-4,2.6-7,5.3-9.2c2.6-2.2,6.1-3.2,10.3-3.2c4.2,0,7.5,1.2,9.9,3.5
	c2.4,2.3,3.8,5.3,4.2,8.9H363z"/>
<path d="M316.5,73.1v36c-2.3-3.2-5.3-5.8-8.9-8c-3.7-2.2-8.1-3.2-13.3-3.2c-4.1,0-7.9,0.8-11.5,2.3c-3.6,1.5-6.8,3.8-9.5,6.7
	c-2.7,3-4.9,6.6-6.5,10.9c-1.6,4.3-2.4,9.3-2.4,14.8s0.8,10.5,2.4,14.8c1.6,4.3,3.8,8,6.5,10.9c2.8,3,6,5.2,9.6,6.7
	c3.6,1.5,7.5,2.3,11.6,2.3c4.9,0,9.1-1,12.8-3c3.7-2,6.7-4.7,9.1-8v9.3H334V73.1H316.5z M312.1,145.6c-3.3,3.2-7.4,4.8-12.4,4.8
	c-2.5,0-4.8-0.4-6.9-1.3c-2.1-0.8-3.9-2-5.5-3.6c-1.5-1.5-2.8-3.4-3.6-5.6c-0.9-2.2-1.3-4.6-1.3-7.3s0.4-5.1,1.3-7.3
	c0.9-2.2,2.1-4.1,3.6-5.6c1.5-1.5,3.4-2.7,5.5-3.6c2.1-0.8,4.4-1.3,6.9-1.3c4.9,0,9.1,1.6,12.4,4.7s5,7.5,5,13
	C317.1,138.1,315.4,142.5,312.1,145.6z"/>
<rect x="234.8" y="99.6" width="17.5" height="66.1"/>
<path class="st2" fill="#E7401F" d="M229.4,78.5c0,4,1.3,7.4,4,10.1c2.7,2.7,6,4,10.1,4c4,0,7.4-1.3,10.1-4c2.7-2.7,4.1-6,4.1-10.1
	c0-4-1.4-7.4-4.1-10.1c-2.7-2.7-6.1-4.1-10.1-4.1c-4,0-7.4,1.4-10.1,4.1C230.8,71.1,229.4,74.5,229.4,78.5"/>
<path d="M218.3,99.6h-17.6v31.6c0,5.7-1.1,10.4-3.4,14c-2.3,3.6-5.9,5.4-10.8,5.4c-3.9,0-6.7-1.2-8.5-3.5c-1.8-2.3-2.6-5.9-2.6-10.7
	V99.6h-17.9v41.1c0,8.1,1.9,14.6,5.7,19.4c3.8,4.8,9.5,7.2,17.2,7.2c5,0,9.2-1.1,12.6-3.3c3.4-2.2,6.2-5,8.5-8.3v10.1h16.9V99.6z"/>
<path d="M124.3,99.6v9.3c-1.9-3-4.6-5.6-8.3-7.7c-3.7-2.1-8.1-3.2-13.2-3.2c-4.1,0-8,0.8-11.7,2.3c-3.7,1.5-6.9,3.7-9.7,6.6
	c-2.8,2.9-5,6.5-6.7,10.8c-1.6,4.3-2.4,9.2-2.4,14.7c0,5.5,0.8,10.3,2.4,14.6c1.6,4.2,3.8,7.8,6.5,10.7c2.8,2.9,6.1,5,9.9,6.5
	c3.8,1.5,7.9,2.2,12.3,2.2c4.8,0,9-0.9,12.6-2.8c3.6-1.9,6.5-4.3,8.7-7.4v4.2c0,2.4-0.3,4.6-0.9,6.7c-0.6,2.1-1.7,3.9-3.2,5.4
	c-1.5,1.5-3.6,2.8-6,3.6c-2.5,0.9-5.6,1.3-9.3,1.3c-4.1,0-7.7-0.7-10.9-2.1c-3.2-1.4-6.2-3.5-9.1-6.2l-8.6,14.4
	c3.4,3.2,7.5,5.7,12.2,7.5c4.7,1.9,10.4,2.8,17.1,2.8c7,0,12.7-0.9,17.3-2.7c4.6-1.8,8.3-4.2,11-7.2c2.8-3,4.7-6.5,5.9-10.4
	c1.1-3.9,1.7-8,1.7-12.2V99.6H124.3z M119.9,145.6c-3.2,3.2-7.3,4.8-12.4,4.8c-2.5,0-4.8-0.4-6.9-1.3c-2.1-0.8-3.9-2-5.5-3.6
	s-2.8-3.4-3.6-5.6c-0.9-2.2-1.3-4.6-1.3-7.3s0.4-5.1,1.3-7.3c0.9-2.2,2.1-4.1,3.6-5.6s3.4-2.7,5.5-3.6c2.1-0.8,4.4-1.3,6.9-1.3
	c5,0,9.2,1.6,12.4,4.7s4.8,7.5,4.8,13C124.7,138.1,123.1,142.5,119.9,145.6z"/>
</svg>
